REM DIRINDEX 1\2,1\3,1\4,1\5,1\6
REM DIRNAME cjc030,folder01,folder02,folder03,folder04,folder05
TITLE ""
FILE "Disc6Track46.mp3" MP3
  TRACK 01 AUDIO
    TITLE "3:cjc030_11715"
    INDEX 01 00:00:00
  TRACK 02 AUDIO
    TITLE "0:"
    INDEX 01 00:01:09
  TRACK 03 AUDIO
    TITLE "4:cjc030_11716"
    INDEX 01 00:01:17
  TRACK 04 AUDIO
    TITLE "0:"
    INDEX 01 00:04:03
  TRACK 05 AUDIO
    TITLE "5:cjc030_11717"
    INDEX 01 00:04:13
  TRACK 06 AUDIO
    TITLE "0:"
    INDEX 01 00:05:28
  TRACK 07 AUDIO
    TITLE "6:cjc030_11718"
    INDEX 01 00:05:38
  TRACK 08 AUDIO
    TITLE "0:"
    INDEX 01 00:09:61
  TRACK 09 AUDIO
    TITLE "3:cjc030_11719"
    INDEX 01 00:10:33
  TRACK 10 AUDIO
    TITLE "0:"
    INDEX 01 00:11:50
  TRACK 11 AUDIO
    TITLE "4:cjc030_11720"
    INDEX 01 00:11:62
  TRACK 12 AUDIO
    TITLE "0:"
    INDEX 01 00:12:48
  TRACK 13 AUDIO
    TITLE "5:cjc030_11721"
    INDEX 01 00:12:56
  TRACK 14 AUDIO
    TITLE "0:"
    INDEX 01 00:14:02
  TRACK 15 AUDIO
    TITLE "6:cjc030_11722"
    INDEX 01 00:14:11
  TRACK 16 AUDIO
    TITLE "0:"
    INDEX 01 00:15:74
  TRACK 17 AUDIO
    TITLE "3:cjc030_11723"
    INDEX 01 00:16:48
  TRACK 18 AUDIO
    TITLE "0:"
    INDEX 01 00:17:51
  TRACK 19 AUDIO
    TITLE "4:cjc030_11724"
    INDEX 01 00:17:63
  TRACK 20 AUDIO
    TITLE "0:"
    INDEX 01 00:20:10
  TRACK 21 AUDIO
    TITLE "5:cjc030_11725"
    INDEX 01 00:20:20
  TRACK 22 AUDIO
    TITLE "0:"
    INDEX 01 00:21:31
  TRACK 23 AUDIO
    TITLE "6:cjc030_11726"
    INDEX 01 00:21:35
  TRACK 24 AUDIO
    TITLE "0:"
    INDEX 01 00:23:22
  TRACK 25 AUDIO
    TITLE "3:cjc030_11727"
    INDEX 01 00:23:71
  TRACK 26 AUDIO
    TITLE "0:"
    INDEX 01 00:24:74
  TRACK 27 AUDIO
    TITLE "4:cjc030_11728"
    INDEX 01 00:25:11
  TRACK 28 AUDIO
    TITLE "0:"
    INDEX 01 00:26:56
  TRACK 29 AUDIO
    TITLE "5:cjc030_11729"
    INDEX 01 00:26:66
  TRACK 30 AUDIO
    TITLE "0:"
    INDEX 01 00:27:71
  TRACK 31 AUDIO
    TITLE "6:cjc030_11730"
    INDEX 01 00:28:06
  TRACK 32 AUDIO
    TITLE "0:"
    INDEX 01 00:29:64
  TRACK 33 AUDIO
    TITLE "3:cjc030_11731"
    INDEX 01 00:30:36
  TRACK 34 AUDIO
    TITLE "0:"
    INDEX 01 00:31:43
  TRACK 35 AUDIO
    TITLE "4:cjc030_11732"
    INDEX 01 00:31:55
  TRACK 36 AUDIO
    TITLE "0:"
    INDEX 01 00:33:56
  TRACK 37 AUDIO
    TITLE "5:cjc030_11733"
    INDEX 01 00:33:66
  TRACK 38 AUDIO
    TITLE "0:"
    INDEX 01 00:34:73
  TRACK 39 AUDIO
    TITLE "6:cjc030_11734"
    INDEX 01 00:35:10
  TRACK 40 AUDIO
    TITLE "0:"
    INDEX 01 00:38:10
  TRACK 41 AUDIO
    TITLE "3:cjc030_11735"
    INDEX 01 00:38:55
  TRACK 42 AUDIO
    TITLE "0:"
    INDEX 01 00:40:05
  TRACK 43 AUDIO
    TITLE "4:cjc030_11736"
    INDEX 01 00:40:17
  TRACK 44 AUDIO
    TITLE "0:"
    INDEX 01 00:41:10
  TRACK 45 AUDIO
    TITLE "5:cjc030_11737"
    INDEX 01 00:41:16
  TRACK 46 AUDIO
    TITLE "0:"
    INDEX 01 00:42:49
  TRACK 47 AUDIO
    TITLE "3:cjc030_11738"
    INDEX 01 00:43:23
  TRACK 48 AUDIO
    TITLE "0:"
    INDEX 01 00:44:22
  TRACK 49 AUDIO
    TITLE "4:cjc030_11739"
    INDEX 01 00:44:32
  TRACK 50 AUDIO
    TITLE "0:"
    INDEX 01 00:46:15
  TRACK 51 AUDIO
    TITLE "5:cjc030_11740"
    INDEX 01 00:46:25
  TRACK 52 AUDIO
    TITLE "0:"
    INDEX 01 00:47:23
  TRACK 53 AUDIO
    TITLE "6:cjc030_11741"
    INDEX 01 00:47:36
  TRACK 54 AUDIO
    TITLE "0:"
    INDEX 01 00:49:10
  TRACK 55 AUDIO
    TITLE "3:cjc030_11742"
    INDEX 01 00:49:57
  TRACK 56 AUDIO
    TITLE "0:"
    INDEX 01 00:50:54
  TRACK 57 AUDIO
    TITLE "4:cjc030_11743"
    INDEX 01 00:50:64
  TRACK 58 AUDIO
    TITLE "0:"
    INDEX 01 00:53:19
  TRACK 59 AUDIO
    TITLE "5:cjc030_11744"
    INDEX 01 00:53:29
  TRACK 60 AUDIO
    TITLE "0:"
    INDEX 01 00:54:27
  TRACK 61 AUDIO
    TITLE "6:cjc030_11745"
    INDEX 01 00:54:40
  TRACK 62 AUDIO
    TITLE "0:"
    INDEX 01 00:56:49
  TRACK 63 AUDIO
    TITLE "3:cjc030_11746"
    INDEX 01 00:57:21
  TRACK 64 AUDIO
    TITLE "0:"
    INDEX 01 00:58:28
  TRACK 65 AUDIO
    TITLE "4:cjc030_11747"
    INDEX 01 00:58:38
  TRACK 66 AUDIO
    TITLE "0:"
    INDEX 01 00:59:24
  TRACK 67 AUDIO
    TITLE "5:cjc030_11748"
    INDEX 01 00:59:34
  TRACK 68 AUDIO
    TITLE "0:"
    INDEX 01 01:00:41
  TRACK 69 AUDIO
    TITLE "6:cjc030_11749"
    INDEX 01 01:00:53
  TRACK 70 AUDIO
    TITLE "0:"
    INDEX 01 01:02:55
  TRACK 71 AUDIO
    TITLE "3:cjc030_11750"
    INDEX 01 01:03:31
  TRACK 72 AUDIO
    TITLE "0:"
    INDEX 01 01:04:33
  TRACK 73 AUDIO
    TITLE "4:cjc030_11751"
    INDEX 01 01:04:43
  TRACK 74 AUDIO
    TITLE "0:"
    INDEX 01 01:06:73
  TRACK 75 AUDIO
    TITLE "5:cjc030_11752"
    INDEX 01 01:07:08
  TRACK 76 AUDIO
    TITLE "0:"
    INDEX 01 01:08:11
  TRACK 77 AUDIO
    TITLE "6:cjc030_11753"
    INDEX 01 01:08:23
  TRACK 78 AUDIO
    TITLE "0:"
    INDEX 01 01:10:61
  TRACK 79 AUDIO
    TITLE "3:cjc030_11754"
    INDEX 01 01:11:35
  TRACK 80 AUDIO
    TITLE "0:"
    INDEX 01 01:12:40
  TRACK 81 AUDIO
    TITLE "4:cjc030_11755"
    INDEX 01 01:12:50
  TRACK 82 AUDIO
    TITLE "0:"
    INDEX 01 01:16:12
  TRACK 83 AUDIO
    TITLE "5:cjc030_11756"
    INDEX 01 01:16:22
  TRACK 84 AUDIO
    TITLE "0:"
    INDEX 01 01:17:28
  TRACK 85 AUDIO
    TITLE "6:cjc030_11757"
    INDEX 01 01:17:39
  TRACK 86 AUDIO
    TITLE "0:"
    INDEX 01 01:20:55
  TRACK 87 AUDIO
    TITLE "3:cjc030_11758"
    INDEX 01 01:21:29
  TRACK 88 AUDIO
    TITLE "0:"
    INDEX 01 01:22:44
  TRACK 89 AUDIO
    TITLE "4:cjc030_11759"
    INDEX 01 01:22:56
  TRACK 90 AUDIO
    TITLE "0:"
    INDEX 01 01:24:55
  TRACK 91 AUDIO
    TITLE "5:cjc030_11760"
    INDEX 01 01:24:61
  TRACK 92 AUDIO
    TITLE "0:"
    INDEX 01 01:26:05
  TRACK 93 AUDIO
    TITLE "3:cjc030_11761"
    INDEX 01 01:26:58
  TRACK 94 AUDIO
    TITLE "0:"
    INDEX 01 01:27:59
  TRACK 95 AUDIO
    TITLE "4:cjc030_11762"
    INDEX 01 01:27:71
  TRACK 96 AUDIO
    TITLE "0:"
    INDEX 01 01:29:01
  TRACK 97 AUDIO
    TITLE "5:cjc030_11763"
    INDEX 01 01:29:07
  TRACK 98 AUDIO
    TITLE "0:"
    INDEX 01 01:30:13
  TRACK 99 AUDIO
    TITLE "6:cjc030_11764"
    INDEX 01 01:30:24
  TRACK 100 AUDIO
    TITLE "0:"
    INDEX 01 01:34:26
  TRACK 101 AUDIO
    TITLE "3:cjc030_11765"
    INDEX 01 01:34:73
  TRACK 102 AUDIO
    TITLE "0:"
    INDEX 01 01:36:09
  TRACK 103 AUDIO
    TITLE "4:cjc030_11766"
    INDEX 01 01:36:19
  TRACK 104 AUDIO
    TITLE "0:"
    INDEX 01 01:37:15
  TRACK 105 AUDIO
    TITLE "5:cjc030_11767"
    INDEX 01 01:37:21
  TRACK 106 AUDIO
    TITLE "0:"
    INDEX 01 01:38:38
  TRACK 107 AUDIO
    TITLE "6:cjc030_11768"
    INDEX 01 01:38:53
  TRACK 108 AUDIO
    TITLE "0:"
    INDEX 01 01:40:35
